<?xml version="1.0" encoding="utf-8" standalone="no"?>
<!DOCTYPE svg PUBLIC "-//W3C//DTD SVG 1.1//EN"
  "http://www.w3.org/Graphics/SVG/1.1/DTD/svg11.dtd">
<svg xmlns:xlink="http://www.w3.org/1999/xlink" width="576pt" height="259.2pt" viewBox="0 0 576 259.2" xmlns="http://www.w3.org/2000/svg" version="1.1">
 <metadata>
  <rdf:RDF xmlns:dc="http://purl.org/dc/elements/1.1/" xmlns:cc="http://creativecommons.org/ns#" xmlns:rdf="http://www.w3.org/1999/02/22-rdf-syntax-ns#">
   <cc:Work>
    <dc:type rdf:resource="http://purl.org/dc/dcmitype/StillImage"/>
    <dc:date>2024-04-15T21:02:47.809760</dc:date>
    <dc:format>image/svg+xml</dc:format>
    <dc:creator>
     <cc:Agent>
      <dc:title>Matplotlib v3.8.4, https://matplotlib.org/</dc:title>
     </cc:Agent>
    </dc:creator>
   </cc:Work>
  </rdf:RDF>
 </metadata>
 <defs>
  <style type="text/css">*{stroke-linejoin: round; stroke-linecap: butt}</style>
 </defs>
 <g id="figure_1">
  <g id="patch_1">
   <path d="M 0 259.2 
L 576 259.2 
L 576 0 
L 0 0 
z
" style="fill: #ffffff"/>
  </g>
  <g id="axes_1">
   <g id="patch_2">
    <path d="M 28.8 230.4 
L 240 230.4 
L 240 14.4 
L 28.8 14.4 
z
" style="fill: #ffffff"/>
   </g>
   <g id="matplotlib.axis_1">
    <g id="xtick_1">
     <g id="line2d_1">
      <defs>
       <path id="m6767f64fb0" d="M 0 0 
L 0 3.5 
" style="stroke: #000000; stroke-width: 0.8"/>
      </defs>
      <g>
       <use xlink:href="#m6767f64fb0" x="240" y="230.4" style="stroke: #000000; stroke-width: 0.8"/>
      </g>
     </g>
     <g id="text_1">
      <!-- 0.0 -->
      <g transform="translate(232.048437 244.998437) scale(0.1 -0.1)">
       <defs>
        <path id="DejaVuSans-30" d="M 2034 4250 
Q 1547 4250 1301 3770 
Q 1056 3291 1056 2328 
Q 1056 1369 1301 889 
Q 1547 409 2034 409 
Q 2525 409 2770 889 
Q 3016 1369 3016 2328 
Q 3016 3291 2770 3770 
Q 2525 4250 2034 4250 
z
M 2034 4750 
Q 2819 4750 3233 4129 
Q 3647 3509 3647 2328 
Q 3647 1150 3233 529 
Q 2819 -91 2034 -91 
Q 1250 -91 836 529 
Q 422 1150 422 2328 
Q 422 3509 836 4129 
Q 1250 4750 2034 4750 
z
" transform="scale(0.015625)"/>
        <path id="DejaVuSans-2e" d="M 684 794 
L 1344 794 
L 1344 0 
L 684 0 
L 684 794 
z
" transform="scale(0.015625)"/>
       </defs>
       <use xlink:href="#DejaVuSans-30"/>
       <use xlink:href="#DejaVuSans-2e" x="63.623047"/>
       <use xlink:href="#DejaVuSans-30" x="95.410156"/>
      </g>
     </g>
    </g>
    <g id="xtick_2">
     <g id="line2d_2">
      <g>
       <use xlink:href="#m6767f64fb0" x="207.170993" y="230.4" style="stroke: #000000; stroke-width: 0.8"/>
      </g>
     </g>
     <g id="text_2">
      <!-- 0.2 -->
      <g transform="translate(199.219431 244.998437) scale(0.1 -0.1)">
       <defs>
        <path id="DejaVuSans-32" d="M 1228 531 
L 3431 531 
L 3431 0 
L 469 0 
L 469 531 
Q 828 903 1448 1529 
Q 2069 2156 2228 2338 
Q 2531 2678 2651 2914 
Q 2772 3150 2772 3378 
Q 2772 3750 2511 3984 
Q 2250 4219 1831 4219 
Q 1534 4219 1204 4116 
Q 875 4013 500 3803 
L 500 4441 
Q 881 4594 1212 4672 
Q 1544 4750 1819 4750 
Q 2544 4750 2975 4387 
Q 3406 4025 3406 3419 
Q 3406 3131 3298 2873 
Q 3191 2616 2906 2266 
Q 2828 2175 2409 1742 
Q 1991 1309 1228 531 
z
" transform="scale(0.015625)"/>
       </defs>
       <use xlink:href="#DejaVuSans-30"/>
       <use xlink:href="#DejaVuSans-2e" x="63.623047"/>
       <use xlink:href="#DejaVuSans-32" x="95.410156"/>
      </g>
     </g>
    </g>
    <g id="xtick_3">
     <g id="line2d_3">
      <g>
       <use xlink:href="#m6767f64fb0" x="174.341987" y="230.4" style="stroke: #000000; stroke-width: 0.8"/>
      </g>
     </g>
     <g id="text_3">
      <!-- 0.4 -->
      <g transform="translate(166.390424 244.998437) scale(0.1 -0.1)">
       <defs>
        <path id="DejaVuSans-34" d="M 2419 4116 
L 825 1625 
L 2419 1625 
L 2419 4116 
z
M 2253 4666 
L 3047 4666 
L 3047 1625 
L 3713 1625 
L 3713 1100 
L 3047 1100 
L 3047 0 
L 2419 0 
L 2419 1100 
L 313 1100 
L 313 1709 
L 2253 4666 
z
" transform="scale(0.015625)"/>
       </defs>
       <use xlink:href="#DejaVuSans-30"/>
       <use xlink:href="#DejaVuSans-2e" x="63.623047"/>
       <use xlink:href="#DejaVuSans-34" x="95.410156"/>
      </g>
     </g>
    </g>
    <g id="xtick_4">
     <g id="line2d_4">
      <g>
       <use xlink:href="#m6767f64fb0" x="141.51298" y="230.4" style="stroke: #000000; stroke-width: 0.8"/>
      </g>
     </g>
     <g id="text_4">
      <!-- 0.6 -->
      <g transform="translate(133.561418 244.998437) scale(0.1 -0.1)">
       <defs>
        <path id="DejaVuSans-36" d="M 2113 2584 
Q 1688 2584 1439 2293 
Q 1191 2003 1191 1497 
Q 1191 994 1439 701 
Q 1688 409 2113 409 
Q 2538 409 2786 701 
Q 3034 994 3034 1497 
Q 3034 2003 2786 2293 
Q 2538 2584 2113 2584 
z
M 3366 4563 
L 3366 3988 
Q 3128 4100 2886 4159 
Q 2644 4219 2406 4219 
Q 1781 4219 1451 3797 
Q 1122 3375 1075 2522 
Q 1259 2794 1537 2939 
Q 1816 3084 2150 3084 
Q 2853 3084 3261 2657 
Q 3669 2231 3669 1497 
Q 3669 778 3244 343 
Q 2819 -91 2113 -91 
Q 1303 -91 875 529 
Q 447 1150 447 2328 
Q 447 3434 972 4092 
Q 1497 4750 2381 4750 
Q 2619 4750 2861 4703 
Q 3103 4656 3366 4563 
z
" transform="scale(0.015625)"/>
       </defs>
       <use xlink:href="#DejaVuSans-30"/>
       <use xlink:href="#DejaVuSans-2e" x="63.623047"/>
       <use xlink:href="#DejaVuSans-36" x="95.410156"/>
      </g>
     </g>
    </g>
    <g id="xtick_5">
     <g id="line2d_5">
      <g>
       <use xlink:href="#m6767f64fb0" x="108.683974" y="230.4" style="stroke: #000000; stroke-width: 0.8"/>
      </g>
     </g>
     <g id="text_5">
      <!-- 0.8 -->
      <g transform="translate(100.732411 244.998437) scale(0.1 -0.1)">
       <defs>
        <path id="DejaVuSans-38" d="M 2034 2216 
Q 1584 2216 1326 1975 
Q 1069 1734 1069 1313 
Q 1069 891 1326 650 
Q 1584 409 2034 409 
Q 2484 409 2743 651 
Q 3003 894 3003 1313 
Q 3003 1734 2745 1975 
Q 2488 2216 2034 2216 
z
M 1403 2484 
Q 997 2584 770 2862 
Q 544 3141 544 3541 
Q 544 4100 942 4425 
Q 1341 4750 2034 4750 
Q 2731 4750 3128 4425 
Q 3525 4100 3525 3541 
Q 3525 3141 3298 2862 
Q 3072 2584 2669 2484 
Q 3125 2378 3379 2068 
Q 3634 1759 3634 1313 
Q 3634 634 3220 271 
Q 2806 -91 2034 -91 
Q 1263 -91 848 271 
Q 434 634 434 1313 
Q 434 1759 690 2068 
Q 947 2378 1403 2484 
z
M 1172 3481 
Q 1172 3119 1398 2916 
Q 1625 2713 2034 2713 
Q 2441 2713 2670 2916 
Q 2900 3119 2900 3481 
Q 2900 3844 2670 4047 
Q 2441 4250 2034 4250 
Q 1625 4250 1398 4047 
Q 1172 3844 1172 3481 
z
" transform="scale(0.015625)"/>
       </defs>
       <use xlink:href="#DejaVuSans-30"/>
       <use xlink:href="#DejaVuSans-2e" x="63.623047"/>
       <use xlink:href="#DejaVuSans-38" x="95.410156"/>
      </g>
     </g>
    </g>
    <g id="xtick_6">
     <g id="line2d_6">
      <g>
       <use xlink:href="#m6767f64fb0" x="75.854967" y="230.4" style="stroke: #000000; stroke-width: 0.8"/>
      </g>
     </g>
     <g id="text_6">
      <!-- 1.0 -->
      <g transform="translate(67.903404 244.998437) scale(0.1 -0.1)">
       <defs>
        <path id="DejaVuSans-31" d="M 794 531 
L 1825 531 
L 1825 4091 
L 703 3866 
L 703 4441 
L 1819 4666 
L 2450 4666 
L 2450 531 
L 3481 531 
L 3481 0 
L 794 0 
L 794 531 
z
" transform="scale(0.015625)"/>
       </defs>
       <use xlink:href="#DejaVuSans-31"/>
       <use xlink:href="#DejaVuSans-2e" x="63.623047"/>
       <use xlink:href="#DejaVuSans-30" x="95.410156"/>
      </g>
     </g>
    </g>
    <g id="xtick_7">
     <g id="line2d_7">
      <g>
       <use xlink:href="#m6767f64fb0" x="43.02596" y="230.4" style="stroke: #000000; stroke-width: 0.8"/>
      </g>
     </g>
     <g id="text_7">
      <!-- 1.2 -->
      <g transform="translate(35.074398 244.998437) scale(0.1 -0.1)">
       <use xlink:href="#DejaVuSans-31"/>
       <use xlink:href="#DejaVuSans-2e" x="63.623047"/>
       <use xlink:href="#DejaVuSans-32" x="95.410156"/>
      </g>
     </g>
    </g>
   </g>
   <g id="matplotlib.axis_2">
    <g id="ytick_1"/>
    <g id="ytick_2"/>
    <g id="ytick_3"/>
    <g id="ytick_4"/>
   </g>
   <g id="LineCollection_1">
    <path d="M 240 95.4 
L 216.145267 95.4 
L 216.145267 41.4 
L 240 41.4 
" clip-path="url(#pc71306a307)" style="fill: none; stroke: #000000; stroke-width: 1.5"/>
    <path d="M 240 149.4 
L 127.873235 149.4 
L 127.873235 68.4 
L 216.145267 68.4 
" clip-path="url(#pc71306a307)" style="fill: none; stroke: #000000; stroke-width: 1.5"/>
    <path d="M 240 203.4 
L 38.857143 203.4 
L 38.857143 108.9 
L 127.873235 108.9 
" clip-path="url(#pc71306a307)" style="fill: none; stroke: #000000; stroke-width: 1.5"/>
   </g>
   <g id="patch_3">
    <path d="M 28.8 230.4 
L 28.8 14.4 
" style="fill: none; stroke: #000000; stroke-width: 0.8; stroke-linejoin: miter; stroke-linecap: square"/>
   </g>
   <g id="patch_4">
    <path d="M 240 230.4 
L 240 14.4 
" style="fill: none; stroke: #000000; stroke-width: 0.8; stroke-linejoin: miter; stroke-linecap: square"/>
   </g>
   <g id="patch_5">
    <path d="M 28.8 230.4 
L 240 230.4 
" style="fill: none; stroke: #000000; stroke-width: 0.8; stroke-linejoin: miter; stroke-linecap: square"/>
   </g>
   <g id="patch_6">
    <path d="M 28.8 14.4 
L 240 14.4 
" style="fill: none; stroke: #000000; stroke-width: 0.8; stroke-linejoin: miter; stroke-linecap: square"/>
   </g>
  </g>
  <g id="axes_2">
   <g id="patch_7">
    <path d="M 240 230.4 
L 345.6 230.4 
L 345.6 14.4 
L 240 14.4 
z
" style="fill: #ffffff"/>
   </g>
   <g id="matplotlib.axis_3">
    <g id="xtick_8">
     <g id="line2d_8">
      <path d="M 240 230.4 
L 240 14.4 
" clip-path="url(#p5ac67251b4)" style="fill: none; stroke-dasharray: 2.96,1.28; stroke-dashoffset: 0; stroke: #b0b0b0; stroke-width: 0.8"/>
     </g>
    </g>
    <g id="xtick_9">
     <g id="line2d_9">
      <path d="M 292.8 230.4 
L 292.8 14.4 
" clip-path="url(#p5ac67251b4)" style="fill: none; stroke-dasharray: 2.96,1.28; stroke-dashoffset: 0; stroke: #b0b0b0; stroke-width: 0.8"/>
     </g>
    </g>
    <g id="xtick_10">
     <g id="line2d_10">
      <path d="M 345.6 230.4 
L 345.6 14.4 
" clip-path="url(#p5ac67251b4)" style="fill: none; stroke-dasharray: 2.96,1.28; stroke-dashoffset: 0; stroke: #b0b0b0; stroke-width: 0.8"/>
     </g>
    </g>
   </g>
   <g id="matplotlib.axis_4">
    <g id="ytick_5">
     <g id="text_8">
      <!-- Phenotype6 -->
      <g transform="translate(352.6 207.199219) scale(0.1 -0.1)">
       <defs>
        <path id="DejaVuSans-50" d="M 1259 4147 
L 1259 2394 
L 2053 2394 
Q 2494 2394 2734 2622 
Q 2975 2850 2975 3272 
Q 2975 3691 2734 3919 
Q 2494 4147 2053 4147 
L 1259 4147 
z
M 628 4666 
L 2053 4666 
Q 2838 4666 3239 4311 
Q 3641 3956 3641 3272 
Q 3641 2581 3239 2228 
Q 2838 1875 2053 1875 
L 1259 1875 
L 1259 0 
L 628 0 
L 628 4666 
z
" transform="scale(0.015625)"/>
        <path id="DejaVuSans-68" d="M 3513 2113 
L 3513 0 
L 2938 0 
L 2938 2094 
Q 2938 2591 2744 2837 
Q 2550 3084 2163 3084 
Q 1697 3084 1428 2787 
Q 1159 2491 1159 1978 
L 1159 0 
L 581 0 
L 581 4863 
L 1159 4863 
L 1159 2956 
Q 1366 3272 1645 3428 
Q 1925 3584 2291 3584 
Q 2894 3584 3203 3211 
Q 3513 2838 3513 2113 
z
" transform="scale(0.015625)"/>
        <path id="DejaVuSans-65" d="M 3597 1894 
L 3597 1613 
L 953 1613 
Q 991 1019 1311 708 
Q 1631 397 2203 397 
Q 2534 397 2845 478 
Q 3156 559 3463 722 
L 3463 178 
Q 3153 47 2828 -22 
Q 2503 -91 2169 -91 
Q 1331 -91 842 396 
Q 353 884 353 1716 
Q 353 2575 817 3079 
Q 1281 3584 2069 3584 
Q 2775 3584 3186 3129 
Q 3597 2675 3597 1894 
z
M 3022 2063 
Q 3016 2534 2758 2815 
Q 2500 3097 2075 3097 
Q 1594 3097 1305 2825 
Q 1016 2553 972 2059 
L 3022 2063 
z
" transform="scale(0.015625)"/>
        <path id="DejaVuSans-6e" d="M 3513 2113 
L 3513 0 
L 2938 0 
L 2938 2094 
Q 2938 2591 2744 2837 
Q 2550 3084 2163 3084 
Q 1697 3084 1428 2787 
Q 1159 2491 1159 1978 
L 1159 0 
L 581 0 
L 581 3500 
L 1159 3500 
L 1159 2956 
Q 1366 3272 1645 3428 
Q 1925 3584 2291 3584 
Q 2894 3584 3203 3211 
Q 3513 2838 3513 2113 
z
" transform="scale(0.015625)"/>
        <path id="DejaVuSans-6f" d="M 1959 3097 
Q 1497 3097 1228 2736 
Q 959 2375 959 1747 
Q 959 1119 1226 758 
Q 1494 397 1959 397 
Q 2419 397 2687 759 
Q 2956 1122 2956 1747 
Q 2956 2369 2687 2733 
Q 2419 3097 1959 3097 
z
M 1959 3584 
Q 2709 3584 3137 3096 
Q 3566 2609 3566 1747 
Q 3566 888 3137 398 
Q 2709 -91 1959 -91 
Q 1206 -91 779 398 
Q 353 888 353 1747 
Q 353 2609 779 3096 
Q 1206 3584 1959 3584 
z
" transform="scale(0.015625)"/>
        <path id="DejaVuSans-74" d="M 1172 4494 
L 1172 3500 
L 2356 3500 
L 2356 3053 
L 1172 3053 
L 1172 1153 
Q 1172 725 1289 603 
Q 1406 481 1766 481 
L 2356 481 
L 2356 0 
L 1766 0 
Q 1100 0 847 248 
Q 594 497 594 1153 
L 594 3053 
L 172 3053 
L 172 3500 
L 594 3500 
L 594 4494 
L 1172 4494 
z
" transform="scale(0.015625)"/>
        <path id="DejaVuSans-79" d="M 2059 -325 
Q 1816 -950 1584 -1140 
Q 1353 -1331 966 -1331 
L 506 -1331 
L 506 -850 
L 844 -850 
Q 1081 -850 1212 -737 
Q 1344 -625 1503 -206 
L 1606 56 
L 191 3500 
L 800 3500 
L 1894 763 
L 2988 3500 
L 3597 3500 
L 2059 -325 
z
" transform="scale(0.015625)"/>
        <path id="DejaVuSans-70" d="M 1159 525 
L 1159 -1331 
L 581 -1331 
L 581 3500 
L 1159 3500 
L 1159 2969 
Q 1341 3281 1617 3432 
Q 1894 3584 2278 3584 
Q 2916 3584 3314 3078 
Q 3713 2572 3713 1747 
Q 3713 922 3314 415 
Q 2916 -91 2278 -91 
Q 1894 -91 1617 61 
Q 1341 213 1159 525 
z
M 3116 1747 
Q 3116 2381 2855 2742 
Q 2594 3103 2138 3103 
Q 1681 3103 1420 2742 
Q 1159 2381 1159 1747 
Q 1159 1113 1420 752 
Q 1681 391 2138 391 
Q 2594 391 2855 752 
Q 3116 1113 3116 1747 
z
" transform="scale(0.015625)"/>
       </defs>
       <use xlink:href="#DejaVuSans-50"/>
       <use xlink:href="#DejaVuSans-68" x="60.302734"/>
       <use xlink:href="#DejaVuSans-65" x="123.681641"/>
       <use xlink:href="#DejaVuSans-6e" x="185.205078"/>
       <use xlink:href="#DejaVuSans-6f" x="248.583984"/>
       <use xlink:href="#DejaVuSans-74" x="309.765625"/>
       <use xlink:href="#DejaVuSans-79" x="348.974609"/>
       <use xlink:href="#DejaVuSans-70" x="408.154297"/>
       <use xlink:href="#DejaVuSans-65" x="471.630859"/>
       <use xlink:href="#DejaVuSans-36" x="533.154297"/>
      </g>
     </g>
    </g>
    <g id="ytick_6">
     <g id="text_9">
      <!-- Phenotype3 -->
      <g transform="translate(352.6 153.199219) scale(0.1 -0.1)">
       <defs>
        <path id="DejaVuSans-33" d="M 2597 2516 
Q 3050 2419 3304 2112 
Q 3559 1806 3559 1356 
Q 3559 666 3084 287 
Q 2609 -91 1734 -91 
Q 1441 -91 1130 -33 
Q 819 25 488 141 
L 488 750 
Q 750 597 1062 519 
Q 1375 441 1716 441 
Q 2309 441 2620 675 
Q 2931 909 2931 1356 
Q 2931 1769 2642 2001 
Q 2353 2234 1838 2234 
L 1294 2234 
L 1294 2753 
L 1863 2753 
Q 2328 2753 2575 2939 
Q 2822 3125 2822 3475 
Q 2822 3834 2567 4026 
Q 2313 4219 1838 4219 
Q 1578 4219 1281 4162 
Q 984 4106 628 3988 
L 628 4550 
Q 988 4650 1302 4700 
Q 1616 4750 1894 4750 
Q 2613 4750 3031 4423 
Q 3450 4097 3450 3541 
Q 3450 3153 3228 2886 
Q 3006 2619 2597 2516 
z
" transform="scale(0.015625)"/>
       </defs>
       <use xlink:href="#DejaVuSans-50"/>
       <use xlink:href="#DejaVuSans-68" x="60.302734"/>
       <use xlink:href="#DejaVuSans-65" x="123.681641"/>
       <use xlink:href="#DejaVuSans-6e" x="185.205078"/>
       <use xlink:href="#DejaVuSans-6f" x="248.583984"/>
       <use xlink:href="#DejaVuSans-74" x="309.765625"/>
       <use xlink:href="#DejaVuSans-79" x="348.974609"/>
       <use xlink:href="#DejaVuSans-70" x="408.154297"/>
       <use xlink:href="#DejaVuSans-65" x="471.630859"/>
       <use xlink:href="#DejaVuSans-33" x="533.154297"/>
      </g>
     </g>
    </g>
    <g id="ytick_7">
     <g id="text_10">
      <!-- Phenotype1 -->
      <g transform="translate(352.6 99.199219) scale(0.1 -0.1)">
       <use xlink:href="#DejaVuSans-50"/>
       <use xlink:href="#DejaVuSans-68" x="60.302734"/>
       <use xlink:href="#DejaVuSans-65" x="123.681641"/>
       <use xlink:href="#DejaVuSans-6e" x="185.205078"/>
       <use xlink:href="#DejaVuSans-6f" x="248.583984"/>
       <use xlink:href="#DejaVuSans-74" x="309.765625"/>
       <use xlink:href="#DejaVuSans-79" x="348.974609"/>
       <use xlink:href="#DejaVuSans-70" x="408.154297"/>
       <use xlink:href="#DejaVuSans-65" x="471.630859"/>
       <use xlink:href="#DejaVuSans-31" x="533.154297"/>
      </g>
     </g>
    </g>
    <g id="ytick_8">
     <g id="text_11">
      <!-- Phenotype5 -->
      <g transform="translate(352.6 45.199219) scale(0.1 -0.1)">
       <defs>
        <path id="DejaVuSans-35" d="M 691 4666 
L 3169 4666 
L 3169 4134 
L 1269 4134 
L 1269 2991 
Q 1406 3038 1543 3061 
Q 1681 3084 1819 3084 
Q 2600 3084 3056 2656 
Q 3513 2228 3513 1497 
Q 3513 744 3044 326 
Q 2575 -91 1722 -91 
Q 1428 -91 1123 -41 
Q 819 9 494 109 
L 494 744 
Q 775 591 1075 516 
Q 1375 441 1709 441 
Q 2250 441 2565 725 
Q 2881 1009 2881 1497 
Q 2881 1984 2565 2268 
Q 2250 2553 1709 2553 
Q 1456 2553 1204 2497 
Q 953 2441 691 2322 
L 691 4666 
z
" transform="scale(0.015625)"/>
       </defs>
       <use xlink:href="#DejaVuSans-50"/>
       <use xlink:href="#DejaVuSans-68" x="60.302734"/>
       <use xlink:href="#DejaVuSans-65" x="123.681641"/>
       <use xlink:href="#DejaVuSans-6e" x="185.205078"/>
       <use xlink:href="#DejaVuSans-6f" x="248.583984"/>
       <use xlink:href="#DejaVuSans-74" x="309.765625"/>
       <use xlink:href="#DejaVuSans-79" x="348.974609"/>
       <use xlink:href="#DejaVuSans-70" x="408.154297"/>
       <use xlink:href="#DejaVuSans-65" x="471.630859"/>
       <use xlink:href="#DejaVuSans-35" x="533.154297"/>
      </g>
     </g>
    </g>
   </g>
   <g id="PathCollection_1">
    <defs>
     <path id="m6ddf7f8b63" d="M 1.619371 -3 
L 1.508328 -2.409007 
L 0.829735 -2.409007 
Q 0.443553 -2.409007 0.268353 -2.257249 
Q 0.093152 -2.10549 0.00802 -1.699568 
L -0.068476 -1.318322 
L 1.099938 -1.318322 
L 0.995065 -0.766811 
L -0.17335 -0.766811 
L -0.904997 3 
L -1.619371 3 
L -0.882788 -0.766811 
L -1.561382 -0.766811 
L -1.46021 -1.318322 
L -0.781616 -1.318322 
L -0.724861 -1.619371 
Q -0.578038 -2.383097 -0.210364 -2.691548 
Q 0.158544 -3 0.949414 -3 
L 1.619371 -3 
z
" style="stroke: #228b22"/>
    </defs>
    <g clip-path="url(#p5ac67251b4)">
     <use xlink:href="#m6ddf7f8b63" x="240" y="203.4" style="fill: #228b22; stroke: #228b22"/>
     <use xlink:href="#m6ddf7f8b63" x="240" y="149.4" style="fill: #228b22; stroke: #228b22"/>
     <use xlink:href="#m6ddf7f8b63" x="240" y="95.4" style="fill: #228b22; stroke: #228b22"/>
     <use xlink:href="#m6ddf7f8b63" x="240" y="41.4" style="fill: #228b22; stroke: #228b22"/>
    </g>
   </g>
   <g id="PathCollection_2">
    <defs>
     <path id="mb37c543467" d="M 1.803265 -0.516735 
Q 1.819592 -0.598367 1.826122 -0.684898 
Q 1.834286 -0.771429 1.834286 -0.857959 
Q 1.834286 -1.48 1.468571 -1.842449 
Q 1.10449 -2.204898 0.477551 -2.204898 
Q -0.221224 -2.204898 -0.758367 -1.762449 
Q -1.293878 -1.321633 -1.568163 -0.510204 
L 1.803265 -0.516735 
z
M 2.619592 0.217959 
L -1.747755 0.217959 
Q -1.778776 0.412245 -1.788571 0.524898 
Q -1.798367 0.637551 -1.798367 0.719184 
Q -1.798367 1.427755 -1.362449 1.816327 
Q -0.926531 2.203265 -0.129796 2.203265 
Q 0.482449 2.203265 1.027755 2.066122 
Q 1.574694 1.927347 2.043265 1.662857 
L 1.865306 2.591837 
Q 1.359184 2.795918 0.820408 2.897143 
Q 0.283265 3 -0.273469 3 
Q -1.462041 3 -2.102041 2.431837 
Q -2.742041 1.862041 -2.742041 0.81551 
Q -2.742041 -0.077551 -2.423673 -0.844898 
Q -2.105306 -1.612245 -1.486531 -2.214694 
Q -1.089796 -2.591837 -0.541224 -2.795918 
Q 0.007347 -3 0.62449 -3 
Q 1.594286 -3 2.167347 -2.418776 
Q 2.742041 -1.837551 2.742041 -0.857959 
Q 2.742041 -0.622857 2.71102 -0.355102 
Q 2.681633 -0.087347 2.619592 0.217959 
z
" style="stroke: #9370db"/>
    </defs>
    <g clip-path="url(#p5ac67251b4)">
     <use xlink:href="#mb37c543467" x="316.987575" y="203.4" style="fill: #9370db; stroke: #9370db"/>
     <use xlink:href="#mb37c543467" x="320.522366" y="149.4" style="fill: #9370db; stroke: #9370db"/>
     <use xlink:href="#mb37c543467" x="313.925601" y="95.4" style="fill: #9370db; stroke: #9370db"/>
     <use xlink:href="#mb37c543467" x="329.819984" y="41.4" style="fill: #9370db; stroke: #9370db"/>
    </g>
   </g>
   <g id="PathCollection_3">
    <defs>
     <path id="m17e4622883" d="M 0 -3 
L -0.673542 -0.927051 
L -2.85317 -0.927051 
L -1.089814 0.354102 
L -1.763356 2.427051 
L -0 1.145898 
L 1.763356 2.427051 
L 1.089814 0.354102 
L 2.85317 -0.927051 
L 0.673542 -0.927051 
z
" style="stroke: #dc143c"/>
    </defs>
    <g clip-path="url(#p5ac67251b4)">
     <use xlink:href="#m17e4622883" x="316.987575" y="203.4" style="fill: #dc143c; stroke: #dc143c"/>
     <use xlink:href="#m17e4622883" x="320.522366" y="149.4" style="fill: #dc143c; stroke: #dc143c"/>
     <use xlink:href="#m17e4622883" x="313.925601" y="95.4" style="fill: #dc143c; stroke: #dc143c"/>
     <use xlink:href="#m17e4622883" x="329.819984" y="41.4" style="fill: #dc143c; stroke: #dc143c"/>
    </g>
   </g>
   <g id="patch_8">
    <path d="M 240 230.4 
L 240 14.4 
" style="fill: none; stroke: #000000; stroke-width: 0.8; stroke-linejoin: miter; stroke-linecap: square"/>
   </g>
   <g id="patch_9">
    <path d="M 345.6 230.4 
L 345.6 14.4 
" style="fill: none; stroke: #000000; stroke-width: 0.8; stroke-linejoin: miter; stroke-linecap: square"/>
   </g>
   <g id="patch_10">
    <path d="M 240 230.4 
L 345.6 230.4 
" style="fill: none; stroke: #000000; stroke-width: 0.8; stroke-linejoin: miter; stroke-linecap: square"/>
   </g>
   <g id="patch_11">
    <path d="M 240 14.4 
L 345.6 14.4 
" style="fill: none; stroke: #000000; stroke-width: 0.8; stroke-linejoin: miter; stroke-linecap: square"/>
   </g>
  </g>
  <g id="clickable-patches">
   <path d="M 240 230.4 
L 768 230.4 
L 768 176.4 
L 240 176.4 
z
" style="fill: #ffffff; fill-opacity: 0.000001"/>
   <path d="M 240 176.4 
L 768 176.4 
L 768 122.4 
L 240 122.4 
z
" style="fill: #ffffff; fill-opacity: 0.000001"/>
   <path d="M 240 122.4 
L 768 122.4 
L 768 68.4 
L 240 68.4 
z
" style="fill: #ffffff; fill-opacity: 0.000001"/>
   <path d="M 240 68.4 
L 768 68.4 
L 768 14.4 
L 240 14.4 
z
" style="fill: #ffffff; fill-opacity: 0.000001"/>
  </g>
 </g>
 <defs>
  <clipPath id="pc71306a307">
   <rect x="28.8" y="14.4" width="211.2" height="216"/>
  </clipPath>
  <clipPath id="p5ac67251b4">
   <rect x="240" y="14.4" width="105.6" height="216"/>
  </clipPath>
 </defs>
</svg>
